<?xml version="1.0" standalone="no"?>
<!DOCTYPE svg PUBLIC "-//W3C//DTD SVG 20010904//EN"
 "http://www.w3.org/TR/2001/REC-SVG-20010904/DTD/svg10.dtd">
<svg version="1.0" xmlns="http://www.w3.org/2000/svg"
 width="512.000000pt" height="512.000000pt" viewBox="0 0 512.000000 512.000000"
 preserveAspectRatio="xMidYMid meet">

<g transform="translate(0.000000,512.000000) scale(0.100000,-0.100000)"
fill="#0092ca" stroke="none">
<path d="M0 2560 l0 -2560 2560 0 2560 0 0 2560 0 2560 -2560 0 -2560 0 0
-2560z m3102 2342 c15 -9 99 -71 188 -137 88 -66 185 -138 214 -160 30 -22 69
-52 87 -66 19 -14 109 -82 202 -150 92 -68 194 -144 227 -169 61 -45 320 -235
409 -300 27 -19 75 -55 107 -79 33 -25 111 -83 174 -130 63 -47 118 -90 122
-95 4 -6 8 -84 8 -172 0 -139 -2 -163 -16 -168 -9 -3 -26 2 -39 11 -58 46 -97
75 -185 140 -140 103 -504 374 -664 494 -166 124 -210 156 -313 230 -115 83
-534 396 -560 418 -22 19 -23 26 -23 179 0 87 3 162 7 165 10 11 26 8 55 -11z
m-874 -68 l22 -6 -2 -462 -3 -461 -327 -3 -328 -2 0 -140 0 -140 393 -2 392
-3 3 -144 c2 -109 -1 -146 -10 -153 -7 -4 -185 -8 -395 -8 l-383 0 0 -135 0
-135 465 0 c384 0 465 -2 465 -14 0 -14 -16 -67 -30 -101 -12 -30 -39 -114
-50 -163 l-11 -43 -547 4 c-554 4 -623 9 -776 46 -129 32 -252 104 -331 194
l-49 55 -36 -62 c-50 -86 -106 -160 -182 -241 -76 -80 -70 -82 -143 27 -27 40
-66 96 -87 124 -21 28 -38 57 -38 65 0 8 18 33 41 54 163 157 279 428 309 720
9 91 19 109 55 100 11 -3 52 -10 90 -15 117 -16 179 -30 187 -43 5 -6 6 -23 3
-37 -2 -14 -12 -74 -20 -133 -9 -60 -20 -119 -25 -133 -18 -46 -11 -78 31
-141 68 -104 198 -203 302 -228 l27 -7 0 416 0 416 -360 0 -360 0 -10 26 c-12
30 -14 873 -2 890 4 6 14 14 22 17 20 7 1669 8 1698 1z m890 -676 c74 -55 141
-106 150 -113 9 -8 32 -25 49 -37 18 -13 105 -77 194 -143 89 -66 183 -136
209 -155 27 -19 83 -62 127 -94 43 -33 126 -95 186 -139 l107 -80 0 -164 c0
-205 -3 -207 -127 -109 -28 23 -140 107 -250 188 -352 260 -617 457 -663 492
-25 19 -74 57 -110 84 l-65 49 -3 163 c-3 173 1 189 42 168 12 -6 81 -56 154
-110z m-251 -591 c23 -17 103 -77 179 -132 75 -55 160 -118 188 -140 28 -23
71 -55 96 -73 97 -68 90 -49 90 -236 0 -146 -2 -166 -16 -166 -13 0 -192 125
-319 224 -16 13 -90 67 -162 121 l-133 97 0 169 c0 193 1 195 77 136z m271
-1304 l2 -263 98 0 c63 0 102 -4 110 -12 15 -15 17 -245 2 -268 -7 -12 -31
-15 -110 -15 l-100 0 0 -379 0 -378 28 6 c15 4 39 10 55 13 33 7 34 13 2 51
-32 38 -31 50 3 65 43 19 162 110 217 166 l49 51 -90 0 c-57 0 -94 4 -102 12
-14 14 -17 195 -4 216 7 10 175 12 808 10 l799 -3 3 -104 c2 -67 -1 -108 -9
-117 -10 -12 -101 -14 -549 -14 l-539 0 -15 -32 c-9 -17 -16 -33 -16 -35 0 -1
231 -3 514 -3 283 0 521 -3 530 -6 14 -5 16 -39 16 -275 0 -360 -20 -485 -88
-561 -63 -70 -101 -81 -298 -86 -208 -5 -214 -3 -215 71 0 29 -4 72 -7 97 l-7
45 -20 -25 c-74 -92 -249 -238 -275 -228 -20 7 -190 213 -190 230 0 10 8 22
18 25 48 18 167 110 234 182 52 57 90 110 126 180 29 54 52 101 52 105 0 3
-25 6 -55 6 -30 0 -55 -4 -55 -8 0 -11 -102 -163 -138 -205 -44 -52 -174 -179
-221 -217 -121 -95 -310 -208 -329 -196 -5 3 -22 24 -37 48 -16 24 -53 75 -82
114 -29 39 -53 76 -53 83 0 6 30 25 66 42 37 16 65 32 62 35 -5 4 -105 -25
-153 -46 -11 -5 -60 -20 -110 -35 -49 -15 -99 -31 -110 -35 -11 -5 -69 -24
-130 -44 -148 -47 -175 -49 -175 -14 0 12 -4 35 -9 52 -20 67 -44 227 -35 235
11 10 97 37 149 46 82 14 75 -24 75 440 l0 415 -77 0 c-132 0 -123 -11 -123
156 l0 143 98 3 97 3 3 263 2 263 153 -3 152 -3 3 -262z m1596 191 c14 -5 16
-52 16 -424 l0 -418 -22 -6 c-30 -8 -1252 -8 -1272 0 -14 5 -16 52 -16 424 0
325 3 419 13 423 18 8 1262 8 1281 1z m-2849 -257 c61 -44 124 -92 141 -106
17 -14 93 -71 168 -126 77 -56 139 -109 142 -120 3 -11 3 -85 2 -164 -3 -123
-5 -145 -20 -155 -14 -8 -23 -5 -45 15 -28 25 -362 276 -446 334 -23 17 -62
45 -85 64 l-42 34 0 157 c0 107 4 160 12 168 14 14 18 12 173 -101z m-815
-169 c24 -18 64 -49 91 -68 26 -19 120 -89 208 -155 89 -66 176 -130 194 -143
17 -12 40 -29 49 -37 15 -12 254 -190 336 -250 15 -11 78 -58 140 -104 l112
-83 0 -169 c0 -149 -2 -169 -16 -169 -17 0 -104 61 -410 290 -253 188 -419
311 -456 338 -18 13 -55 40 -83 61 -27 21 -94 70 -147 110 l-98 72 0 170 c0
194 1 196 80 137z m-696 -218 c28 -23 80 -63 116 -89 150 -111 464 -343 583
-431 71 -52 153 -113 183 -135 30 -22 136 -100 237 -174 100 -74 196 -146 213
-160 17 -14 108 -82 202 -151 l171 -125 0 -167 c1 -98 -3 -169 -9 -173 -12 -8
-57 16 -107 57 -22 18 -112 85 -198 148 -87 63 -175 129 -195 145 -21 17 -109
82 -195 145 -87 63 -184 135 -216 160 -32 25 -119 90 -195 145 -75 55 -164
120 -196 145 -168 129 -439 330 -460 341 -16 9 -18 28 -18 184 0 202 -1 201
84 135z"/>
<path d="M850 4370 l0 -160 530 0 530 0 0 160 0 160 -530 0 -530 0 0 -160z"/>
<path d="M3554 959 c-59 -62 -154 -131 -174 -126 -17 4 -19 -2 -22 -67 -2 -39
-3 -72 -3 -73 3 -7 189 110 245 154 57 45 140 127 140 139 0 2 -35 4 -78 4
-74 0 -80 -2 -108 -31z"/>
<path d="M4415 883 c-21 -60 -59 -149 -86 -200 -55 -105 -57 -103 64 -103 60
0 71 3 92 26 28 30 33 59 38 247 l4 137 -37 0 -37 0 -38 -107z"/>
<path d="M3760 2195 l0 -45 335 0 335 0 0 45 0 45 -335 0 -335 0 0 -45z"/>
<path d="M3760 1885 l0 -55 335 0 335 0 0 55 0 55 -335 0 -335 0 0 -55z"/>
</g>
</svg>
